<?xml version="1.0" encoding="utf-8"?>
<!-- Generator: Adobe Illustrator 19.1.0, SVG Export Plug-In . SVG Version: 6.00 Build 0)  -->
<svg version="1.1" id="Camada_1" xmlns="http://www.w3.org/2000/svg" xmlns:xlink="http://www.w3.org/1999/xlink" x="0px" y="0px"
	 viewBox="0 0 1316 600" style="enable-background:new 0 0 1316 600;" xml:space="preserve">
<style type="text/css">
	.st0{fill:#F7E5DF;}
	.st1{opacity:0.58;}
	.st2{fill:url(#XMLID_44_);}
	.st3{fill:url(#XMLID_45_);}
	.st4{fill:#FFFFFF;}
	.st5{fill:url(#XMLID_46_);}
	.st6{fill:url(#XMLID_47_);}
	.st7{fill:url(#XMLID_48_);}
	.st8{fill:url(#XMLID_49_);}
	.st9{opacity:0.5;}
	.st10{fill:url(#XMLID_50_);}
	.st11{fill:url(#XMLID_51_);}
	.st12{fill:url(#XMLID_52_);}
	.st13{fill:url(#XMLID_53_);}
	.st14{fill:url(#XMLID_54_);}
	.st15{fill:url(#XMLID_55_);}
	.st16{opacity:0.7;}
	.st17{fill:url(#XMLID_56_);}
	.st18{fill:url(#XMLID_57_);}
	.st19{fill:url(#XMLID_58_);}
	.st20{fill:url(#XMLID_59_);}
</style>
<g id="XMLID_89_">
	<path id="XMLID_101_" class="st0" d="M192,396.8c0,0-7.1-31.5-36.8-20c0,0,8.8-36.9-34.5-35.1c-46.9,1.9-31.6,34.1-31.6,34.1
		s-21.7-8.3-30.2,0c-4.4,4.3-6.3,12.5-7,19.2c-24.8-15.1-44,9.4-37.3,11.1c6.7,1.8,36.8,0,36.8,0s18.6,3.1,28.8,0
		c0,0,36.4,7.2,75.4,1.4c0,0,18.2,4.5,36.4,0.4c0,0,25.3,0.8,34.2-1.8C235,403.5,211.6,384,192,396.8z"/>
	<g id="XMLID_97_" class="st1">
		<linearGradient id="XMLID_44_" gradientUnits="userSpaceOnUse" x1="95.0016" y1="463.3892" x2="132.6726" y2="346.1905">
			<stop  offset="0" style="stop-color:#C47B61"/>
			<stop  offset="1" style="stop-color:#F6E2A7"/>
		</linearGradient>
		<path id="XMLID_99_" class="st2" d="M186.8,405c-12.8,6.6-40.5-10.8-40.5-10.8c-1.9,1.9-4.2,3.1-6.5,4c-7.1,2.6-15,1.4-21.1-2.9
			c-46.5-32.1-0.6-53.3-0.4-53.4c-37.9,2.5-32.1,26-29.8,32.4c3.4,5.8,7.4,9.7,9.4,11.4c-17.9-14.5-32.4-13-33.4-12.9
			c-2.2,0.6-4.1,1.5-5.6,3c-4.4,4.3-6.3,12.4-7,19.2c0.5,3.3,1.2,5.4,1.2,5.4c-3.2-4.1-6.5-7.1-9.6-9.2
			c-20.5-5.9-34.8,13.3-28.9,14.9c6.7,1.8,36.8,0,36.8,0s18.6,3.1,28.8,0c0,0,36.4,7.2,75.4,1.4c0,0,18.2,4.5,36.4,0.4
			c0,0,11.6,0.4,21.9-0.2C202.5,407.8,186.8,405,186.8,405z"/>
	</g>
	<path id="XMLID_90_" class="st4" d="M192,396.8c0,0-7.1-31.5-36.8-20c0,0,6.3-26.4-17.9-33.5c5.9,3.7,18.6,14.4,15.1,35.4
		c0,0,27.5-12.9,37.4,20.8c0,0,23.4-16.3,36.4,6.6C235,403.5,211.6,384,192,396.8z"/>
</g>
<g id="XMLID_1_">
	<path id="XMLID_6_" class="st0" d="M412.5,217.3c0,0-5.9-26.2-30.6-16.6c0,0,7.4-30.7-28.7-29.3c-39,1.6-26.3,28.4-26.3,28.4
		s-18.1-6.9-25.1,0c-3.7,3.6-5.2,10.4-5.9,16c-20.6-12.6-36.6,7.8-31.1,9.3c5.5,1.5,30.6,0,30.6,0s15.5,2.6,24,0
		c0,0,30.3,6,62.8,1.1c0,0,15.1,3.7,30.3,0.4c0,0,21,0.7,28.4-1.5C448.4,222.8,428.8,206.6,412.5,217.3z"/>
	<g id="XMLID_3_" class="st1">
		<linearGradient id="XMLID_45_" gradientUnits="userSpaceOnUse" x1="331.7999" y1="272.6992" x2="363.1589" y2="175.1379">
			<stop  offset="0" style="stop-color:#C47B61"/>
			<stop  offset="1" style="stop-color:#F6E2A7"/>
		</linearGradient>
		<path id="XMLID_5_" class="st3" d="M408.2,224.1c-10.7,5.5-33.7-9-33.7-9c-1.6,1.6-3.5,2.6-5.4,3.3c-5.9,2.2-12.4,1.1-17.6-2.4
			c-38.7-26.7-0.5-44.3-0.3-44.5c-31.6,2.1-26.7,21.7-24.8,26.9c2.8,4.8,6.2,8.1,7.9,9.5c-14.9-12.1-27-10.8-27.8-10.7
			c-1.8,0.5-3.4,1.2-4.7,2.5c-3.7,3.6-5.2,10.4-5.9,16c0.5,2.7,1,4.5,1,4.5c-2.7-3.4-5.4-5.9-8-7.6c-17.1-4.9-28.9,11.1-24,12.4
			c5.5,1.5,30.6,0,30.6,0s15.5,2.6,24,0c0,0,30.3,6,62.8,1.1c0,0,15.1,3.7,30.3,0.4c0,0,9.7,0.3,18.2-0.2
			C421.3,226.4,408.2,224.1,408.2,224.1z"/>
	</g>
	<path id="XMLID_2_" class="st4" d="M412.5,217.3c0,0-5.9-26.2-30.6-16.6c0,0,5.3-21.9-14.9-27.8c4.9,3.1,15.5,12,12.5,29.5
		c0,0,22.9-10.7,31.1,17.3c0,0,19.5-13.6,30.3,5.5C448.4,222.8,428.8,206.6,412.5,217.3z"/>
</g>
<g id="XMLID_7_">
	<path id="XMLID_12_" class="st0" d="M628,332.8c0,0-7.1-31.5-36.8-20c0,0,8.8-36.9-34.5-35.1c-46.9,1.9-31.6,34.1-31.6,34.1
		s-21.7-8.3-30.2,0c-4.4,4.3-6.3,12.5-7,19.2c-24.8-15.1-44,9.4-37.3,11.1c6.7,1.8,36.8,0,36.8,0s18.6,3.1,28.8,0
		c0,0,36.4,7.2,75.4,1.4c0,0,18.2,4.5,36.4,0.4c0,0,25.3,0.8,34.2-1.8C671,339.5,647.6,320,628,332.8z"/>
	<g id="XMLID_9_" class="st1">
		<linearGradient id="XMLID_46_" gradientUnits="userSpaceOnUse" x1="531.0031" y1="399.3915" x2="568.6741" y2="282.1929">
			<stop  offset="0" style="stop-color:#C47B61"/>
			<stop  offset="1" style="stop-color:#F6E2A7"/>
		</linearGradient>
		<path id="XMLID_11_" class="st5" d="M622.8,341c-12.8,6.6-40.5-10.8-40.5-10.8c-1.9,1.9-4.2,3.1-6.5,4c-7.1,2.6-15,1.4-21.1-2.9
			c-46.5-32.1-0.6-53.3-0.4-53.4c-37.9,2.5-32.1,26-29.8,32.4c3.4,5.8,7.4,9.7,9.4,11.4c-17.9-14.5-32.4-13-33.4-12.9
			c-2.2,0.6-4.1,1.5-5.6,3c-4.4,4.3-6.3,12.4-7,19.2c0.5,3.3,1.2,5.4,1.2,5.4c-3.2-4.1-6.5-7.1-9.6-9.2
			c-20.5-5.9-34.8,13.3-28.9,14.9c6.7,1.8,36.8,0,36.8,0s18.6,3.1,28.8,0c0,0,36.4,7.2,75.4,1.4c0,0,18.2,4.5,36.4,0.4
			c0,0,11.6,0.4,21.9-0.2C638.5,343.8,622.8,341,622.8,341z"/>
	</g>
	<path id="XMLID_8_" class="st4" d="M628,332.8c0,0-7.1-31.5-36.8-20c0,0,6.3-26.4-17.9-33.5c5.9,3.7,18.6,14.4,15.1,35.4
		c0,0,27.5-12.9,37.4,20.8c0,0,23.4-16.3,36.4,6.6C671,339.5,647.6,320,628,332.8z"/>
</g>
<g id="XMLID_13_" class="st9">
	<path id="XMLID_18_" class="st0" d="M738.3,128.5c0,0-4.6-20.6-24.1-13c0,0,5.8-24.1-22.6-23C661,93.7,671,114.8,671,114.8
		s-14.2-5.4-19.7,0c-2.9,2.8-4.1,8.1-4.6,12.6c-16.2-9.9-28.7,6.1-24.4,7.3c4.3,1.2,24.1,0,24.1,0s12.2,2,18.8,0
		c0,0,23.8,4.7,49.3,0.9c0,0,11.9,2.9,23.8,0.3c0,0,16.5,0.5,22.3-1.2C766.4,132.8,751,120.2,738.3,128.5z"/>
	<g id="XMLID_15_" class="st1">
		<linearGradient id="XMLID_47_" gradientUnits="userSpaceOnUse" x1="674.8911" y1="172.0042" x2="699.5063" y2="95.4234">
			<stop  offset="0" style="stop-color:#C47B61"/>
			<stop  offset="1" style="stop-color:#F6E2A7"/>
		</linearGradient>
		<path id="XMLID_17_" class="st6" d="M734.9,133.8c-8.4,4.3-26.5-7.1-26.5-7.1c-1.3,1.2-2.7,2.1-4.3,2.6c-4.6,1.7-9.8,0.9-13.8-1.9
			c-30.4-21-0.4-34.8-0.3-34.9c-24.8,1.6-21,17-19.5,21.2c2.2,3.8,4.9,6.3,6.2,7.5c-11.7-9.5-21.2-8.5-21.8-8.4
			c-1.4,0.4-2.7,1-3.7,1.9c-2.9,2.8-4.1,8.1-4.6,12.6c0.4,2.1,0.8,3.5,0.8,3.5c-2.1-2.7-4.2-4.7-6.3-6c-13.4-3.9-22.7,8.7-18.9,9.7
			c4.3,1.2,24.1,0,24.1,0s12.2,2,18.8,0c0,0,23.8,4.7,49.3,0.9c0,0,11.9,2.9,23.8,0.3c0,0,7.6,0.3,14.3-0.1
			C745.2,135.7,734.9,133.8,734.9,133.8z"/>
	</g>
	<path id="XMLID_14_" class="st4" d="M738.3,128.5c0,0-4.6-20.6-24.1-13c0,0,4.1-17.2-11.7-21.9c3.8,2.4,12.2,9.4,9.8,23.1
		c0,0,18-8.4,24.4,13.6c0,0,15.3-10.7,23.8,4.3C766.4,132.8,751,120.2,738.3,128.5z"/>
</g>
<g id="XMLID_19_">
	<path id="XMLID_24_" class="st0" d="M303.6,90.2c0,0-9.1-40.4-47.2-25.6c0,0,11.3-47.3-44.2-45c-60.1,2.4-40.5,43.7-40.5,43.7
		s-27.9-10.6-38.7-0.1c-5.7,5.5-8.1,16-9,24.7c-31.8-19.4-56.3,12-47.8,14.3c8.5,2.3,47.2,0,47.2,0s23.9,4,37,0
		c0,0,46.6,9.2,96.6,1.8c0,0,23.3,5.8,46.6,0.6c0,0,32.4,1.1,43.8-2.3C358.7,98.7,328.7,73.8,303.6,90.2z"/>
	<g id="XMLID_21_" class="st1">
		<linearGradient id="XMLID_48_" gradientUnits="userSpaceOnUse" x1="179.2755" y1="175.5159" x2="227.5593" y2="25.2997">
			<stop  offset="0" style="stop-color:#C47B61"/>
			<stop  offset="1" style="stop-color:#F6E2A7"/>
		</linearGradient>
		<path id="XMLID_23_" class="st7" d="M296.9,100.6c-16.4,8.5-51.9-13.8-51.9-13.8c-2.5,2.4-5.4,4-8.4,5.1c-9,3.3-19.2,1.8-27.1-3.7
			c-59.6-41.1-0.8-68.3-0.5-68.5c-48.6,3.2-41.1,33.4-38.2,41.5c4.3,7.4,9.5,12.4,12.1,14.6c-22.9-18.6-41.5-16.6-42.8-16.5
			c-2.8,0.7-5.2,1.9-7.2,3.8c-5.7,5.5-8,15.9-9,24.6c0.7,4.2,1.5,7,1.5,7c-4.2-5.3-8.3-9.1-12.3-11.7c-26.3-7.6-44.5,17.1-37,19.1
			c8.5,2.3,47.2,0,47.2,0s23.9,4,37,0c0,0,46.6,9.2,96.6,1.8c0,0,23.3,5.8,46.6,0.6c0,0,14.9,0.5,28-0.3
			C317.1,104.3,296.9,100.6,296.9,100.6z"/>
	</g>
	<path id="XMLID_20_" class="st4" d="M303.6,90.2c0,0-9.1-40.4-47.2-25.6c0,0,8.1-33.8-23-42.9c7.5,4.8,23.9,18.4,19.3,45.3
		c0,0,35.2-16.5,47.9,26.6c0,0,30.1-20.9,46.7,8.4C358.7,98.7,328.7,73.8,303.6,90.2z"/>
</g>
<g id="XMLID_25_">
	<path id="XMLID_30_" class="st0" d="M993,257.1c0,0-9.8-43.7-51-27.7c0,0,12.3-51.1-47.9-48.7c-65,2.6-43.8,47.2-43.8,47.2
		s-30.1-11.4-41.8-0.1c-6.1,6-8.7,17.3-9.8,26.7c-34.4-21-60.9,13-51.7,15.4c9.2,2.5,51,0,51,0s25.8,4.3,40,0c0,0,50.4,10,104.5,1.9
		c0,0,25.2,6.2,50.4,0.6c0,0,35.1,1.2,47.3-2.5C1052.7,266.3,1020.2,239.4,993,257.1z"/>
	<g id="XMLID_27_" class="st1">
		<linearGradient id="XMLID_49_" gradientUnits="userSpaceOnUse" x1="858.5896" y1="349.4185" x2="910.814" y2="186.9428">
			<stop  offset="0" style="stop-color:#C47B61"/>
			<stop  offset="1" style="stop-color:#F6E2A7"/>
		</linearGradient>
		<path id="XMLID_29_" class="st8" d="M985.8,268.4c-17.7,9.2-56.2-15-56.2-15c-2.7,2.6-5.8,4.4-9,5.5c-9.8,3.6-20.7,1.9-29.3-4
			c-64.5-44.5-0.9-73.8-0.6-74c-52.6,3.4-44.5,36.1-41.3,44.9c4.7,8,10.3,13.4,13.1,15.8c-24.8-20.2-44.9-18-46.3-17.8
			c-3,0.8-5.7,2.1-7.8,4.1c-6.1,6-8.7,17.2-9.8,26.6c0.8,4.5,1.6,7.5,1.6,7.5c-4.5-5.7-8.9-9.9-13.3-12.7
			c-28.4-8.2-48.2,18.5-40,20.7c9.2,2.5,51,0,51,0s25.8,4.3,40,0c0,0,50.4,10,104.5,1.9c0,0,25.2,6.2,50.4,0.6
			c0,0,16.1,0.5,30.3-0.3C1007.7,272.4,985.8,268.4,985.8,268.4z"/>
	</g>
	<path id="XMLID_26_" class="st4" d="M993,257.1c0,0-9.8-43.7-51-27.7c0,0,8.8-36.5-24.9-46.4c8.1,5.1,25.8,19.9,20.9,49
		c0,0,38.1-17.9,51.8,28.8c0,0,32.5-22.7,50.5,9.1C1052.7,266.3,1020.2,239.4,993,257.1z"/>
</g>
<g id="XMLID_31_" class="st16">
	<path id="XMLID_36_" class="st0" d="M1172.9,396.5c0,0-5.3-23.6-27.6-15c0,0,6.6-27.7-25.9-26.4c-35.2,1.4-23.7,25.6-23.7,25.6
		s-16.3-6.2-22.6,0c-3.3,3.2-4.7,9.4-5.3,14.4c-18.6-11.4-33,7-28,8.4s27.6,0,27.6,0s14,2.3,21.6,0c0,0,27.3,5.4,56.6,1
		c0,0,13.6,3.4,27.3,0.3c0,0,19,0.6,25.6-1.4S1187.6,387,1172.9,396.5z"/>
	<g id="XMLID_33_" class="st1">
		<linearGradient id="XMLID_50_" gradientUnits="userSpaceOnUse" x1="1100.0958" y1="446.5117" x2="1128.3661" y2="358.5598">
			<stop  offset="0" style="stop-color:#C47B61"/>
			<stop  offset="1" style="stop-color:#F6E2A7"/>
		</linearGradient>
		<path id="XMLID_35_" class="st10" d="M1169,402.7c-9.6,5-30.4-8.1-30.4-8.1c-1.4,1.4-3.1,2.4-4.9,3c-5.3,1.9-11.2,1-15.9-2.2
			c-34.9-24.1-0.5-40-0.3-40.1c-28.5,1.9-24.1,19.5-22.3,24.3c2.5,4.3,5.6,7.3,7.1,8.6c-13.4-10.9-24.3-9.7-25-9.6
			c-1.6,0.4-3.1,1.1-4.2,2.2c-3.3,3.2-4.7,9.3-5.3,14.4c0.4,2.4,0.9,4.1,0.9,4.1c-2.4-3.1-4.8-5.3-7.2-6.9
			c-15.4-4.4-26.1,10-21.7,11.2c5,1.3,27.6,0,27.6,0s14,2.3,21.6,0c0,0,27.3,5.4,56.6,1c0,0,13.6,3.4,27.3,0.3c0,0,8.7,0.3,16.4-0.1
			C1180.8,404.8,1169,402.7,1169,402.7z"/>
	</g>
	<path id="XMLID_32_" class="st4" d="M1172.9,396.5c0,0-5.3-23.6-27.6-15c0,0,4.7-19.8-13.5-25.1c4.4,2.8,14,10.8,11.3,26.5
		c0,0,20.6-9.7,28.1,15.6c0,0,17.6-12.3,27.3,4.9C1205.2,401.5,1187.6,387,1172.9,396.5z"/>
</g>
<g id="XMLID_37_">
	<path id="XMLID_42_" class="st0" d="M1255,113.8c0,0-7.1-31.5-36.8-20c0,0,8.8-36.9-34.5-35.1c-46.9,1.9-31.6,34.1-31.6,34.1
		s-21.7-8.3-30.2,0c-4.4,4.3-6.3,12.5-7,19.2c-24.8-15.1-44,9.4-37.3,11.1s36.8,0,36.8,0s18.6,3.1,28.8,0c0,0,36.4,7.2,75.4,1.4
		c0,0,18.2,4.5,36.4,0.4c0,0,25.3,0.8,34.2-1.8C1298,120.5,1274.6,101,1255,113.8z"/>
	<g id="XMLID_39_" class="st1">
		<linearGradient id="XMLID_51_" gradientUnits="userSpaceOnUse" x1="1158.0016" y1="180.3892" x2="1195.6726" y2="63.1905">
			<stop  offset="0" style="stop-color:#C47B61"/>
			<stop  offset="1" style="stop-color:#F6E2A7"/>
		</linearGradient>
		<path id="XMLID_41_" class="st11" d="M1249.8,122c-12.8,6.6-40.5-10.8-40.5-10.8c-1.9,1.9-4.2,3.1-6.5,4c-7.1,2.6-15,1.4-21.1-2.9
			c-46.5-32.1-0.6-53.3-0.4-53.4c-37.9,2.5-32.1,26-29.8,32.4c3.4,5.8,7.4,9.7,9.4,11.4c-17.9-14.5-32.4-13-33.4-12.9
			c-2.2,0.6-4.1,1.5-5.6,3c-4.4,4.3-6.3,12.4-7,19.2c0.5,3.3,1.2,5.4,1.2,5.4c-3.2-4.1-6.5-7.1-9.6-9.2
			c-20.5-5.9-34.8,13.3-28.9,14.9c6.7,1.8,36.8,0,36.8,0s18.6,3.1,28.8,0c0,0,36.4,7.2,75.4,1.4c0,0,18.2,4.5,36.4,0.4
			c0,0,11.6,0.4,21.9-0.2C1265.5,124.8,1249.8,122,1249.8,122z"/>
	</g>
	<path id="XMLID_38_" class="st4" d="M1255,113.8c0,0-7.1-31.5-36.8-20c0,0,6.3-26.4-17.9-33.5c5.9,3.7,18.6,14.4,15.1,35.4
		c0,0,27.5-12.9,37.4,20.8c0,0,23.4-16.3,36.4,6.6C1298,120.5,1274.6,101,1255,113.8z"/>
</g>
</svg>
