<?xml version="1.0" encoding="utf-8"?>
<!-- Generator: Adobe Illustrator 19.1.0, SVG Export Plug-In . SVG Version: 6.00 Build 0)  -->
<svg version="1.1" id="Camada_1" xmlns="http://www.w3.org/2000/svg" xmlns:xlink="http://www.w3.org/1999/xlink" x="0px" y="0px"
	 viewBox="151 47.9 3192.5 406.1" style="enable-background:new 151 47.9 3192.5 406.1;" xml:space="preserve">
<style type="text/css">
	.st0{fill:#B87744;}
	.st1{fill:#A06742;}
	.st2{fill:#CF914C;}
	.st3{fill:#8A5C43;}
	.st4{fill:none;stroke:#313131;stroke-miterlimit:10;}
	.st5{display:none;fill:url(#XMLID_128_);}
	.st6{fill:#707B22;}
	.st7{fill:#7E8724;}
	.st8{fill:#80A22A;}
	.st9{fill:url(#SVGID_1_);}
	.st10{display:none;fill:url(#XMLID_129_);}
	.st11{display:none;fill:url(#XMLID_130_);}
	.st12{fill:url(#SVGID_2_);}
	.st13{display:none;fill:url(#XMLID_131_);}
	.st14{fill:url(#SVGID_3_);}
</style>
<g>
	<g id="XMLID_1_">
		<polygon class="st0" points="151,292.9 151,454 950.8,455 950.8,293 		"/>
		<path id="XMLID_5_" class="st1" d="M151.1,372.9c0,0,12,22,67,8s86.1-69.5,154.2-70.3c0,0-57.2,12.3-82.2,50.3s-43,83-139,50
			V372.9z"/>
		<path class="st1" d="M380.1,437.9c23.5-23.5,66-6,78-97c6-45.6,93-41,93-41l-28-7c0,0-79.4,15.5-84,57c-3.3,29.7-1.7,51.8-61,62
			c-33.2,5.7-64,26-85.8,44h73.8C369.7,449.9,374.3,443.7,380.1,437.9z"/>
		<path id="XMLID_10_" class="st2" d="M268.1,287.5c0,0,5,4.5,2,28.4c-2.5,20.2-16,38-49,47.9c0,0,39,4.1,83-58.9L268.1,287.5z"/>
		<path class="st2" d="M640.1,389.9c168-23,159-97,159-97s-2,76-183,80c-88.7,2-141.8,42.3-173,83h102.6
			C559.7,423.2,587.9,397,640.1,389.9z"/>
		<path id="XMLID_11_" class="st1" d="M577.1,292.9c0,0-44,32-48,63s-60,31-72,52c0,0,22-11,49-18c25.5-6.6,29-6.3,36.7-35.8
			c3-11.7-8-38.2,71.3-28.4c51.6,6.3,94-27.8,94-27.8l-34-5c0,0-21.9,32.2-48.5,27C599.1,314.7,577.1,292.9,577.1,292.9z"/>
		<path class="st1" d="M729.6,383.2c-42.8,36-76.7,59.6-103.4,75h19.1c22-19.8,87.8-76.5,148.3-105.5c74-35.5,157,58.1,157,58.1
			l0.1-35C939.3,357.1,871.8,263.6,729.6,383.2z"/>
		<path id="XMLID_12_" class="st2" d="M939.1,433.9c0,0-69-72-130-38s-94.3,48-111,38c0,0,40,5,100-56
			c40.2-40.8,89.7-13.8,118.1,8.6C930.7,397.9,939.1,415.4,939.1,433.9L939.1,433.9z"/>
		<path class="st2" d="M356.1,379.9c53.3-15.1,71-64,71-64s-20,40-72,49.8c-29.8,5.6-80.3,51.8-117.9,90.2h8.2
			C282,424,327.7,387.9,356.1,379.9z"/>
		<path id="XMLID_16_" class="st3" d="M164.1,336.9c0,0,26-15,37,0s-15,14-27,13.5S164.1,336.9,164.1,336.9z"/>
		<path id="XMLID_25_" class="st3" d="M645.7,422.4c0,0,20.1-11.6,28.6,0s-11.6,10.8-20.9,10.4C644.2,432.5,645.7,422.4,645.7,422.4
			z"/>
		<path id="XMLID_14_" class="st3" d="M221.1,325.7c0,0-10,14.3,0,14.8C231.1,340.9,233.1,321.4,221.1,325.7z"/>
		<path id="XMLID_17_" class="st3" d="M187.5,362.6L187.5,362.6c1.6-1.4,3.7-1.7,5.6-1l1.9,0.7c1.7,0.7,2.1,3,0.5,4.1l-2,1.5
			c-1.3,0.9-3,1.1-4.5,0.5c-0.2-0.1-0.4-0.2-0.7-0.3C186.1,367.1,185.7,364.1,187.5,362.6z"/>
		<path id="XMLID_18_" class="st3" d="M209.1,350.6c0,0,5.8,7.7,13.9,0C231.1,342.9,203.3,342.9,209.1,350.6z"/>
		<path id="XMLID_20_" class="st3" d="M321.4,357.9c0,0,5.3-17.5,19.3-13.1s9.3,9.2,9.3,9.2S328.8,365.2,321.4,357.9z"/>
		<path id="XMLID_32_" class="st3" d="M600.4,343.1c0,0-8.1,11.6,0,11.9C608.5,355.4,610.1,339.7,600.4,343.1z"/>
		<path id="XMLID_31_" class="st3" d="M554,346.2c0,0,4.7,6.3,11.3,0C571.8,340,549.3,340,554,346.2z"/>
		<path id="XMLID_30_" class="st3" d="M569.4,351.9c0,0,4.3-14.1,15.6-10.6c11.3,3.6,7.5,7.5,7.5,7.5S575.3,357.8,569.4,351.9z"/>
		<path id="XMLID_21_" class="st3" d="M346.5,331.9L346.5,331.9c-2.2,3.1-1.3,7.4,1.9,9.3c4.9,3,12.1,6.2,17.7,3.6
			c3.1-1.4,4.1-4.7,3.5-8.3C367.6,325.5,352.9,322.7,346.5,331.9z"/>
		<path id="XMLID_27_" class="st3" d="M610.4,433.4L610.4,433.4c-1.7,2.4-1,5.7,1.5,7.2c3.8,2.3,9.4,4.8,13.7,2.8
			c2.4-1.1,3.2-3.7,2.7-6.4C626.8,428.5,615.4,426.3,610.4,433.4z"/>
		<path id="XMLID_22_" class="st3" d="M331.2,332.7l-1.3,1.6c-2,2.4-0.3,6.1,2.9,6.1h2.1c1.5,0,2.6-1.3,2.3-2.8l0,0
			C336.5,334.8,334.1,332.7,331.2,332.7L331.2,332.7z"/>
		<path id="XMLID_47_" class="st3" d="M903.1,444.4c0,0,5.3-17.5,19.3-13.1s9.3,9.2,9.3,9.2S910.4,451.7,903.1,444.4z"/>
		<path id="XMLID_46_" class="st3" d="M912.8,419.2l-1.3,1.6c-2,2.4-0.3,6.1,2.9,6.1h2.1c1.5,0,2.6-1.3,2.3-2.8l0,0
			C918.2,421.3,915.7,419.2,912.8,419.2L912.8,419.2z"/>
		<path id="XMLID_26_" class="st4" d="M668.8,406.8l-1,1.2c-1.6,1.9-0.2,4.7,2.2,4.7h1.6c1.1,0,2-1,1.8-2.2l0,0
			C672.9,408.4,671,406.8,668.8,406.8L668.8,406.8z"/>
		<path id="XMLID_34_" class="st3" d="M590.1,350.8l-1.1,1.3c-1.6,2-0.2,4.9,2.3,4.9h1.7c1.2,0,2.1-1.1,1.9-2.3l0,0
			C594.4,352.5,592.4,350.8,590.1,350.8L590.1,350.8z"/>
		<path id="XMLID_29_" class="st3" d="M642,441.6l1.4-0.7c2.2-1,2.2-4.2,0-5.2l-1.5-0.7c-1-0.5-2.3,0.1-2.5,1.2l0,0
			C638.9,438.3,640,440.6,642,441.6L642,441.6z"/>
		<path class="st3" d="M193.4,444.2c-11.1-4-18,5.5-21.5,11.7h32.6C204.5,452.3,202.4,447.5,193.4,444.2z"/>
		<path id="XMLID_19_" class="st3" d="M166.8,432.6c0,0-3.3,8.1,2.7,10.7s9.6-5.4,9.6-5.4l-6.6-5.4h-5.7V432.6z"/>
		<path id="XMLID_28_" class="st3" d="M621.9,418c0,0-2.6,6.3,2.1,8.3s7.5-4.1,7.5-4.1l-5.1-4.1L621.9,418L621.9,418z"/>
		<path id="XMLID_33_" class="st3" d="M591,333.9l2.2-0.9c0,0,3.7,2.4,0,6.2c-1.9,1.9-2.9,2-3.7,1.1
			C587.5,338.4,588.4,335,591,333.9z"/>
		<path class="st3" d="M445.1,443.3c-1-5.3-0.3-7.4-5.7-10.7c-5.3-3.3-18,0.7-30,0.5c-8.5-0.1-16.9,14-22.1,22.8h47.8
			C440.6,451,445.6,445.8,445.1,443.3z"/>
		<path id="XMLID_24_" class="st3" d="M724.1,302.6c0,0-9.3,24.7,0,26.7s28.7,0,28.7,0l6.7-23.3L724.1,302.6z"/>
		<path id="XMLID_37_" class="st3" d="M764.1,315.9c0,0-6,8.3,0,10.5s17.3-2,15.3-5.2C777.4,317.9,772.7,312.1,764.1,315.9z"/>
		<path id="XMLID_38_" class="st3" d="M708.1,320.8c0,0,4.7,12.8-3.3,11.9c-8-0.8-6.7-11.9-6.7-11.9S703.4,316.4,708.1,320.8z"/>
		<path class="st3" d="M902.1,434.8c0,0-14-7.6-25.3-9.6c-7.9-1.4-19.7,18-26.3,30.7h49.4C901.2,447.6,902.1,434.8,902.1,434.8z"/>
		<path id="XMLID_40_" class="st3" d="M827.4,425.2c0,0-9.3,12.6,0,13s23.3-11.5,23.3-11.5S846.8,407.8,827.4,425.2z"/>
		
			<linearGradient id="XMLID_128_" gradientUnits="userSpaceOnUse" x1="580.3334" y1="233.8999" x2="580.3334" y2="904.0896" gradientTransform="matrix(1 0 0 -1 0 503.8)">
			<stop  offset="0" style="stop-color:#5F3D3A"/>
			<stop  offset="0.1126" style="stop-color:#64423F"/>
			<stop  offset="0.2547" style="stop-color:#744F4B"/>
			<stop  offset="0.4126" style="stop-color:#8E6561"/>
			<stop  offset="0.582" style="stop-color:#B2847F"/>
			<stop  offset="0.7588" style="stop-color:#E0AAA5"/>
			<stop  offset="0.8022" style="stop-color:#ECB5AF"/>
		</linearGradient>
		<path id="XMLID_81_" class="st5" d="M635,204.9c-21.4,14.7-45.6,5.1-63.1-6.5c-12.1-13.7-14-21.6-30.5-24.1l37.3-2.5
			c-4.7-3.2-2-10.6,3.6-10l51.9,4.9l0,0c-12.6-12.6-4.2-34.3,13.6-35l6.2-0.3l0,0c-15.2-15.2-15-39.8,0.4-54.7l28.4-27.5
			c0,0-95.5,31-98.1,32.3c-13.8,6.8-31.5,25.4-46.7,43.4l-12.3,2.6l55.4-48.2c-18,2.2-29.2-18.9-17.3-32.6l5.3-6.1l0,0
			c-22-1.5-39.1-19.7-39.3-41.8l-0.3-35.7c0,0-43.4,90.5-44.2,93.3c-5.8,18.8-2.2,55.5,1.8,82.5h-0.2c-1.7,0-6.2-6.6-6.2-6.6
			c-1.7,0-2.7-1.8-1.9-3.3l-7.3-6.6c-1.7,0-2.7-1.8-1.9-3.3l0,0l-7.3-6.6c-1.7,0-2.7-1.8-1.9-3.3c0,0-7-5.1-6.2-6.6l0,0h-5.3
			c1.4-1.4,3.3-2.6,5-3.6c2.9-1.7,4.8-4.8,4.8-8.1l0,0L431.5,103l-26,20.4c-1,0.8-1.1,2.2-0.3,3.1l5.9,7.4l0.9,8.3
			c0,0,13.1-4.3,27-7.7c4.7-1.1,9.5,0.6,12.5,4.4c10.2,13.3,26,28.5,37,38.6l-1.8,13.2l-16.8,9.9v9.9l9.7-3.9l2.8-4.7l12.8-6
			c5.9,14.1,16.5,30.4,28.6,38.6l2.9,10.3l-9.5,9.9l9.5,7.3l5.2-6l8.6-11.2c0,0-3.9-2-5.9-5.5c5.6,1,11.2,0.4,16.5-0.9
			c1,2.6,2,4.7,2,4.7l-8.7,6.5l6.5,9l12.5-17.6c-1.2-0.7-2.3-2.9-3.2-5.3c8.6-3.1,16.3-6.6,22.1-5.4c44.8,8.8,68.8-16.3,92-25.3
			s81.7,1.3,81.7,1.3S686,169.9,635,204.9z M433.6,112.8c0,0,7.1-7.1,11.7-5.1C445.3,107.8,441.2,114.2,433.6,112.8z M466.9,125.6
			L466.9,125.6L466.9,125.6L466.9,125.6z M470,128.9C470,128.9,469.9,128.9,470,128.9L470,128.9L470,128.9z"/>
		<path id="XMLID_6_" class="st6" d="M355.6,274.3c0,0,137.4-98.7,199.2-107.5c61.8-8.9,175.1,106.1,224.5,116.1L355.6,274.3z"/>
		<path class="st7" d="M818,115.9c-35.8,40.3-173.1,151.8-173.1,151.8l213.4-8.5l91.2,5.2v-66.6C896.5,148.6,838,90.9,818,115.9z"/>
		<path class="st7" d="M231.1,257.5c-18.5-3.7-48.3-30.2-80.1-59.7v66.6l20.2,1.1L231.1,257.5z"/>
		<path class="st8" d="M941,266.9c-139.2-12-272.7,10.4-410.8,5.4c-24.7,0-48.5,0-73.2-5c-17.5-4-33-11-51.5-7
			c-50.5,10-97.9,11-147.4,12c-35.6,1-73,5.6-106.9-3.7l-0.2,43.6c32.6,7.6,68.3,2.6,102.2,1.7c49.5-1,96.9-2,147.4-12
			c18.6-4,34,3,51.5,7c24.7,5,48.5,5,73.2,5c138.1,5,274.2-13,413.4-1c3.4,0.4,7,0.5,10.6,0.3l0.3-45.6
			C947.7,267.6,942.9,267.1,941,266.9z"/>
		<path class="st3" d="M938.7,312.9c-139.2-12-275.3,6-413.4,1c-24.7,0-48.5,0-73.2-5c-17.5-4-33-11-51.5-7
			c-50.5,10-97.9,11-147.4,12c-33.8,0.9-69.6,5.9-102.2-1.7l0.2,9.1c32.6,7.6,68.1,3.4,102,2.5c49.5-1,96.9-2,147.4-12
			c18.6-4,34,3,51.5,7c24.7,5,48.5,5,73.2,5c138.1,5,274.2-13,413.4-1c3.4,0.4,7,0.5,10.6,0.3v-9.9
			C945.7,313.4,942.1,313.3,938.7,312.9z"/>
		<path id="XMLID_48_" class="st7" d="M166,268.9c0,0,104-132.5,165.8-141.3c61.8-8.9,162.3,131.6,211.6,141.6l-26,0.7l-100-16
			L166,268.9z"/>
		<linearGradient id="SVGID_1_" gradientUnits="userSpaceOnUse" x1="550.3333" y1="220.1262" x2="550.3333" y2="269.4864">
			<stop  offset="0" style="stop-color:#9CB62F"/>
			<stop  offset="1" style="stop-color:#C9E550"/>
		</linearGradient>
		<path class="st9" d="M935.4,259.3c-31.7-2.8-63.4-4.5-95-5.2l1.7-8.2l-3.7,8.2c-13.7-0.3-27.5-0.5-41.2-0.4l2.6-10.3l-4.8,10.3
			c-0.6,0-1.1,0-1.7,0l-2.1-17.4l-3.2,15.8l-8.8-12.8l2.5,14.4c-44.4,0.4-88.7,2.1-133,4.6l-3.6-6.4l1.3,6.5
			c-26.7,1.5-53.4,3.2-80.1,4.9c-23.7,1-45.4-1-69.1-6c-17.9-3.5-35.2-6.4-52.8-7.6l3.1-12.2l-5.5,12.1c-0.2,0-0.4,0-0.7,0l-2.3-19
			l-3.2,15.8l-8.8-12.8l2.8,15.7c-3,0-5.9,0-8.9,0.1c-12.2,0.6-24.4,1.2-36.5,1.6l-5.3-7.6l2.3,7.7c-17.5,0.7-34.9,1.4-52.3,2.4
			l2.6-10.2l-4.7,10.3c-0.6,0-1.1,0.1-1.7,0.1l-2.1-17.4l-3.2,15.8l-8.8-12.8l2.7,15.2c-20.4,1.5-40.7,3.5-61,6.8
			c-12.4,2.3-25.6,2.2-39,1.4l3.1-12.3l-5.6,12.1c-0.2,0-0.4,0-0.6,0l-2.3-19.1l-3.2,15.8l-8.8-12.8l2.6,15.1
			c-16.2-1.6-32.5-3.8-48.1-4v11.2c33.9,9.3,71.4,4.7,106.9,3.7c49.5-1,96.9-2,147.4-12c18.6-4,34,3,51.5,7c24.7,5,48.5,5,73.2,5
			c138.1,5,274.2-13,413.4-1c1.9,0.2,4.3-1.3,6.3-1.2v-12.5C945.1,257.9,940.1,259.7,935.4,259.3z"/>
	</g>
</g>
<g>
	<g id="XMLID_2_">
		<rect x="949.9" y="292.9" class="st0" width="797.5" height="162"/>
		<path id="XMLID_63_" class="st1" d="M949.6,374.3c0,0,11.5,20.6,66.5,6.6c55-14,86.1-69.5,154.2-70.3c0,0-57.2,12.3-82.2,50.3
			s-42.3,82-138.3,49L949.6,374.3z"/>
		<path class="st1" d="M1178.1,437.9c23.5-23.5,66-6,78-97c6-45.6,93-41,93-41l-28-7c0,0-79.4,15.5-84,57c-3.3,29.7-1.7,51.8-61,62
			c-33.2,5.7-64,26-85.8,44h73.8C1167.7,449.9,1172.3,443.7,1178.1,437.9z"/>
		<path id="XMLID_62_" class="st2" d="M1066.1,287.5c0,0,5,4.5,2,28.4c-2.5,20.2-16,38-49,47.9c0,0,39,4.1,83-58.9L1066.1,287.5z"/>
		<path class="st2" d="M1438.1,389.9c168-23,159-97,159-97s-2,76-183,80c-88.7,2-141.8,42.3-173,83h102.6
			C1357.7,423.2,1385.9,397,1438.1,389.9z"/>
		<path id="XMLID_61_" class="st1" d="M1375.1,292.9c0,0-44,32-48,63s-60,31-72,52c0,0,22-11,49-18c25.5-6.6,29-6.3,36.7-35.8
			c3-11.7-8-38.2,71.3-28.4c51.6,6.3,94-27.8,94-27.8l-34-5c0,0-21.9,32.2-48.5,27C1397.1,314.7,1375.1,292.9,1375.1,292.9z"/>
		<path id="XMLID_60_" class="st2" d="M1737.1,433.9c0,0-69-72-130-38s-94.3,48-111,38c0,0,40,5,100-56
			c40.2-40.8,89.7-13.8,118.1,8.6C1728.7,397.9,1737.1,415.4,1737.1,433.9L1737.1,433.9z"/>
		<path class="st2" d="M1154.1,379.9c53.3-15.1,71-64,71-64s-20,40-72,49.8c-29.8,5.6-80.3,51.8-117.9,90.2h8.2
			C1080,424,1125.7,387.9,1154.1,379.9z"/>
		<path id="XMLID_59_" class="st3" d="M962.1,336.9c0,0,26-15,37,0s-15,14-27,13.5S962.1,336.9,962.1,336.9z"/>
		<path id="XMLID_58_" class="st3" d="M1443.7,422.4c0,0,20.1-11.6,28.6,0s-11.6,10.8-20.9,10.4
			C1442.2,432.5,1443.7,422.4,1443.7,422.4z"/>
		<path id="XMLID_57_" class="st3" d="M1019.1,325.7c0,0-10,14.3,0,14.8C1029.1,340.9,1031.1,321.4,1019.1,325.7z"/>
		<path id="XMLID_56_" class="st3" d="M985.5,362.6L985.5,362.6c1.6-1.4,3.7-1.7,5.6-1l1.9,0.7c1.7,0.7,2.1,3,0.5,4.1l-2,1.5
			c-1.3,0.9-3,1.1-4.5,0.5c-0.2-0.1-0.4-0.2-0.7-0.3C984.1,367.1,983.7,364.1,985.5,362.6z"/>
		<path id="XMLID_55_" class="st3" d="M1007.1,350.6c0,0,5.8,7.7,13.9,0S1001.3,342.9,1007.1,350.6z"/>
		<path id="XMLID_54_" class="st3" d="M1119.4,357.9c0,0,5.3-17.5,19.3-13.1s9.3,9.2,9.3,9.2S1126.8,365.2,1119.4,357.9z"/>
		<path id="XMLID_53_" class="st3" d="M1398.4,343.1c0,0-8.1,11.6,0,11.9C1406.5,355.4,1408.1,339.7,1398.4,343.1z"/>
		<path id="XMLID_52_" class="st3" d="M1352,346.2c0,0,4.7,6.3,11.3,0C1369.8,340,1347.3,340,1352,346.2z"/>
		<path id="XMLID_51_" class="st3" d="M1367.4,351.9c0,0,4.3-14.1,15.6-10.6c11.3,3.6,7.5,7.5,7.5,7.5S1373.3,357.8,1367.4,351.9z"
			/>
		<path id="XMLID_50_" class="st3" d="M1144.5,331.9L1144.5,331.9c-2.2,3.1-1.3,7.4,1.9,9.3c4.9,3,12.1,6.2,17.7,3.6
			c3.1-1.4,4.1-4.7,3.5-8.3C1165.6,325.5,1150.9,322.7,1144.5,331.9z"/>
		<path id="XMLID_49_" class="st3" d="M1408.4,433.4L1408.4,433.4c-1.7,2.4-1,5.7,1.5,7.2c3.8,2.3,9.4,4.8,13.7,2.8
			c2.4-1.1,3.2-3.7,2.7-6.4C1424.8,428.5,1413.4,426.3,1408.4,433.4z"/>
		<path id="XMLID_45_" class="st3" d="M1129.2,332.7l-1.3,1.6c-2,2.4-0.3,6.1,2.9,6.1h2.1c1.5,0,2.6-1.3,2.3-2.8l0,0
			C1134.5,334.8,1132.1,332.7,1129.2,332.7L1129.2,332.7z"/>
		<path id="XMLID_44_" class="st3" d="M1701.1,444.4c0,0,5.3-17.5,19.3-13.1s9.3,9.2,9.3,9.2S1708.4,451.7,1701.1,444.4z"/>
		<path id="XMLID_43_" class="st3" d="M1710.8,419.2l-1.3,1.6c-2,2.4-0.3,6.1,2.9,6.1h2.1c1.5,0,2.6-1.3,2.3-2.8l0,0
			C1716.2,421.3,1713.7,419.2,1710.8,419.2L1710.8,419.2z"/>
		<path id="XMLID_42_" class="st4" d="M1466.8,406.8l-1,1.2c-1.6,1.9-0.2,4.7,2.2,4.7h1.6c1.1,0,2-1,1.8-2.2l0,0
			C1470.9,408.4,1469,406.8,1466.8,406.8L1466.8,406.8z"/>
		<path id="XMLID_41_" class="st3" d="M1388.1,350.8l-1.1,1.3c-1.6,2-0.2,4.9,2.3,4.9h1.7c1.2,0,2.1-1.1,1.9-2.3l0,0
			C1392.4,352.5,1390.4,350.8,1388.1,350.8L1388.1,350.8z"/>
		<path id="XMLID_39_" class="st3" d="M1440,441.6l1.4-0.7c2.2-1,2.2-4.2,0-5.2l-1.5-0.7c-1-0.5-2.3,0.1-2.5,1.2l0,0
			C1436.9,438.3,1438,440.6,1440,441.6L1440,441.6z"/>
		<path class="st3" d="M991.4,444.2c-11.1-4-18,5.5-21.5,11.7h32.6C1002.5,452.3,1000.4,447.5,991.4,444.2z"/>
		<path id="XMLID_36_" class="st3" d="M964.8,432.6c0,0-3.3,8.1,2.7,10.7s9.6-5.4,9.6-5.4l-6.6-5.4h-5.7V432.6z"/>
		<path id="XMLID_35_" class="st3" d="M1419.9,418c0,0-2.6,6.3,2.1,8.3c4.7,2,7.5-4.1,7.5-4.1l-5.1-4.1L1419.9,418L1419.9,418z"/>
		<path id="XMLID_23_" class="st3" d="M1389,333.9l2.2-0.9c0,0,3.7,2.4,0,6.2c-1.9,1.9-2.9,2-3.7,1.1
			C1385.5,338.4,1386.4,335,1389,333.9z"/>
		<path class="st3" d="M1243.1,443.3c-1-5.3-0.3-7.4-5.7-10.7c-5.3-3.3-18,0.7-30,0.5c-8.5-0.1-16.9,14-22.1,22.8h47.8
			C1238.6,451,1243.6,445.8,1243.1,443.3z"/>
		<path id="XMLID_15_" class="st3" d="M1522.1,302.6c0,0-9.3,24.7,0,26.7c9.3,2,28.7,0,28.7,0l6.7-23.3L1522.1,302.6z"/>
		<path id="XMLID_13_" class="st3" d="M1562.1,315.9c0,0-6,8.3,0,10.5s17.3-2,15.3-5.2C1575.4,317.9,1570.7,312.1,1562.1,315.9z"/>
		<path id="XMLID_9_" class="st3" d="M1506.1,320.8c0,0,4.7,12.8-3.3,11.9c-8-0.8-6.7-11.9-6.7-11.9S1501.4,316.4,1506.1,320.8z"/>
		<path class="st3" d="M1700.1,434.8c0,0-14-7.6-25.3-9.6c-7.9-1.4-19.7,18-26.3,30.7h49.4C1699.2,447.6,1700.1,434.8,1700.1,434.8z
			"/>
		<path id="XMLID_8_" class="st3" d="M1625.4,425.2c0,0-9.3,12.6,0,13c9.3,0.4,23.3-11.5,23.3-11.5S1644.8,407.8,1625.4,425.2z"/>
		
			<linearGradient id="XMLID_129_" gradientUnits="userSpaceOnUse" x1="1378.3334" y1="233.8999" x2="1378.3334" y2="904.0896" gradientTransform="matrix(1 0 0 -1 0 503.8)">
			<stop  offset="0" style="stop-color:#5F3D3A"/>
			<stop  offset="0.1126" style="stop-color:#64423F"/>
			<stop  offset="0.2547" style="stop-color:#744F4B"/>
			<stop  offset="0.4126" style="stop-color:#8E6561"/>
			<stop  offset="0.582" style="stop-color:#B2847F"/>
			<stop  offset="0.7588" style="stop-color:#E0AAA5"/>
			<stop  offset="0.8022" style="stop-color:#ECB5AF"/>
		</linearGradient>
		<path id="XMLID_7_" class="st10" d="M1433,204.9c-21.4,14.7-45.6,5.1-63.1-6.5c-12.1-13.7-14-21.6-30.5-24.1l37.3-2.5
			c-4.7-3.2-2-10.6,3.6-10l51.9,4.9l0,0c-12.6-12.6-4.2-34.3,13.6-35l6.2-0.3l0,0c-15.2-15.2-15-39.8,0.4-54.7l28.4-27.5
			c0,0-95.5,31-98.1,32.3c-13.8,6.8-31.5,25.4-46.7,43.4l-12.3,2.6l55.4-48.2c-18,2.2-29.2-18.9-17.3-32.6l5.3-6.1l0,0
			c-22-1.5-39.1-19.7-39.3-41.8l-0.3-35.7c0,0-43.4,90.5-44.2,93.3c-5.8,18.8-2.2,55.5,1.8,82.5h-0.2c-1.7,0-6.2-6.6-6.2-6.6
			c-1.7,0-2.7-1.8-1.9-3.3l-7.3-6.6c-1.7,0-2.7-1.8-1.9-3.3l0,0l-7.3-6.6c-1.7,0-2.7-1.8-1.9-3.3c0,0-7-5.1-6.2-6.6l0,0h-5.3
			c1.4-1.4,3.3-2.6,5-3.6c2.9-1.7,4.8-4.8,4.8-8.1l0,0l-27.2,12.1l-26,20.4c-1,0.8-1.1,2.2-0.3,3.1l5.9,7.4l0.9,8.3
			c0,0,13.1-4.3,27-7.7c4.7-1.1,9.5,0.6,12.5,4.4c10.2,13.3,26,28.5,37,38.6l-1.8,13.2l-16.8,9.9v9.9l9.7-3.9l2.8-4.7l12.8-6
			c5.9,14.1,16.5,30.4,28.6,38.6l2.9,10.3l-9.5,9.9l9.5,7.3l5.2-6l8.6-11.2c0,0-3.9-2-5.9-5.5c5.6,1,11.2,0.4,16.5-0.9
			c1,2.6,2,4.7,2,4.7l-8.7,6.5l6.5,9l12.5-17.6c-1.2-0.7-2.3-2.9-3.2-5.3c8.6-3.1,16.3-6.6,22.1-5.4c44.8,8.8,68.8-16.3,92-25.3
			c23.2-9,81.7,1.3,81.7,1.3S1484,169.9,1433,204.9z M1231.6,112.8c0,0,7.1-7.1,11.7-5.1C1243.3,107.8,1239.2,114.2,1231.6,112.8z
			 M1264.9,125.6L1264.9,125.6L1264.9,125.6L1264.9,125.6z M1268,128.9C1268,128.9,1267.9,128.9,1268,128.9L1268,128.9L1268,128.9z"
			/>
		<path id="XMLID_4_" class="st6" d="M1153.6,274.3c0,0,137.4-98.7,199.2-107.5c61.8-8.9,175.1,106.1,224.5,116.1L1153.6,274.3z"/>
		<path class="st7" d="M1616,115.9c-35.8,40.3-173.1,151.8-173.1,151.8l213.4-8.5l91.2,5.2v-66.6C1694.5,148.6,1636,90.9,1616,115.9
			z"/>
		<path class="st7" d="M1029.1,257.5c-18.5-3.7-48.3-30.2-80.1-59.7v66.6l20.2,1.1L1029.1,257.5z"/>
		<path class="st8" d="M1739,266.9c-139.2-12-272.7,10.4-410.8,5.4c-24.7,0-48.5,0-73.2-5c-17.5-4-33-11-51.5-7
			c-50.5,10-97.9,11-147.4,12c-35.6,1-71.9,5.1-106.6-1.3l-1,42.2c32.6,7.6,68.8,1.5,102.7,0.6c49.5-1,96.9-2,147.4-12
			c18.6-4,34,3,51.5,7c24.7,5,48.5,5,73.2,5c138.1,5,274.2-13,413.4-1c3.4,0.4,7,0.5,10.6,0.3l0.3-45.6
			C1745.7,267.6,1740.9,267.1,1739,266.9z"/>
		<path id="XMLID_3_" class="st7" d="M964,268.9c0,0,104-132.5,165.8-141.3c61.8-8.9,162.3,131.6,211.6,141.6l-26,0.7l-100-16
			L964,268.9z"/>
	</g>
</g>
<g>
	<g id="XMLID_97_">
		<rect x="1747.3" y="293" class="st0" width="798.6" height="162"/>
		<path class="st1" d="M1813.3,380.9c-16.3,4.2-29.4,4.5-39.4,3.2c-12.9-1.7-24.7-8.6-32.6-19.1c-21.5-28.4-88.6-90.2-214.7,15.9
			c-42.8,36-76.7,59.6-103.4,75h19.1c22-19.8,87.8-76.5,148.3-105.5c52.7-25.3,109.3,16.2,137.5,42.1c18.3,16.9,41.6,27.5,66.4,29.5
			c55.1,4.5,70.6-30.6,90.7-61.1c25-38,82.2-50.3,82.2-50.3C1899.4,311.4,1868.3,366.9,1813.3,380.9z"/>
		<path class="st1" d="M1975.3,437.9c23.5-23.5,66-6,78-97c6-45.6,93-41,93-41l-28-7c0,0-79.4,15.5-84,57c-3.3,29.7-1.7,51.8-61,62
			c-33.2,5.7-64,26-85.8,44h73.8C1964.9,449.9,1969.5,443.7,1975.3,437.9z"/>
		<path id="XMLID_127_" class="st2" d="M1863.3,287.5c0,0,5,4.5,2,28.4c-2.5,20.2-16,38-49,47.9c0,0,39,4.1,83-58.9L1863.3,287.5z"
			/>
		<path class="st2" d="M2235.3,389.9c168-23,159-97,159-97s-2,76-183,80c-88.7,2-141.8,42.3-173,83h102.6
			C2154.9,423.2,2183.1,397,2235.3,389.9z"/>
		<path id="XMLID_126_" class="st1" d="M2172.3,292.9c0,0-44,32-48,63s-60,31-72,52c0,0,22-11,49-18c25.5-6.6,29-6.3,36.7-35.8
			c3-11.7-8-38.2,71.3-28.4c51.6,6.3,94-27.8,94-27.8l-34-5c0,0-21.9,32.2-48.5,27C2194.3,314.7,2172.3,292.9,2172.3,292.9z"/>
		<path id="XMLID_125_" class="st2" d="M2534.3,433.9c0,0-69-72-130-38s-94.3,48-111,38c0,0,40,5,100-56
			c40.2-40.8,89.7-13.8,118.1,8.6C2525.9,397.9,2534.3,415.4,2534.3,433.9L2534.3,433.9z"/>
		<path class="st2" d="M1951.3,379.9c53.3-15.1,71-64,71-64s-20,40-72,49.8c-29.8,5.6-80.3,51.8-117.9,90.2h8.2
			C1877.2,424,1922.9,387.9,1951.3,379.9z"/>
		<path id="XMLID_124_" class="st3" d="M1759.3,336.9c0,0,26-15,37,0s-15,14-27,13.5S1759.3,336.9,1759.3,336.9z"/>
		<path id="XMLID_123_" class="st3" d="M2240.9,422.4c0,0,20.1-11.6,28.6,0s-11.6,10.8-20.9,10.4
			C2239.4,432.5,2240.9,422.4,2240.9,422.4z"/>
		<path id="XMLID_122_" class="st3" d="M1816.3,325.7c0,0-10,14.3,0,14.8C1826.3,340.9,1828.3,321.4,1816.3,325.7z"/>
		<path id="XMLID_121_" class="st3" d="M1782.7,362.6L1782.7,362.6c1.6-1.4,3.7-1.7,5.6-1l1.9,0.7c1.7,0.7,2.1,3,0.5,4.1l-2,1.5
			c-1.3,0.9-3,1.1-4.5,0.5c-0.2-0.1-0.4-0.2-0.7-0.3C1781.3,367.1,1780.9,364.1,1782.7,362.6z"/>
		<path id="XMLID_120_" class="st3" d="M1804.3,350.6c0,0,5.8,7.7,13.9,0S1798.5,342.9,1804.3,350.6z"/>
		<path id="XMLID_119_" class="st3" d="M1916.6,357.9c0,0,5.3-17.5,19.3-13.1s9.3,9.2,9.3,9.2S1924,365.2,1916.6,357.9z"/>
		<path id="XMLID_118_" class="st3" d="M2195.6,343.1c0,0-8.1,11.6,0,11.9C2203.7,355.4,2205.3,339.7,2195.6,343.1z"/>
		<path id="XMLID_117_" class="st3" d="M2149.2,346.2c0,0,4.7,6.3,11.3,0C2167,340,2144.5,340,2149.2,346.2z"/>
		<path id="XMLID_116_" class="st3" d="M2164.6,351.9c0,0,4.3-14.1,15.6-10.6c11.3,3.6,7.5,7.5,7.5,7.5S2170.5,357.8,2164.6,351.9z"
			/>
		<path id="XMLID_115_" class="st3" d="M1941.7,331.9L1941.7,331.9c-2.2,3.1-1.3,7.4,1.9,9.3c4.9,3,12.1,6.2,17.7,3.6
			c3.1-1.4,4.1-4.7,3.5-8.3C1962.8,325.5,1948.1,322.7,1941.7,331.9z"/>
		<path id="XMLID_114_" class="st3" d="M2205.6,433.4L2205.6,433.4c-1.7,2.4-1,5.7,1.5,7.2c3.8,2.3,9.4,4.8,13.7,2.8
			c2.4-1.1,3.2-3.7,2.7-6.4C2222,428.5,2210.6,426.3,2205.6,433.4z"/>
		<path id="XMLID_113_" class="st3" d="M1926.4,332.7l-1.3,1.6c-2,2.4-0.3,6.1,2.9,6.1h2.1c1.5,0,2.6-1.3,2.3-2.8l0,0
			C1931.7,334.8,1929.3,332.7,1926.4,332.7L1926.4,332.7z"/>
		<path id="XMLID_112_" class="st3" d="M2498.3,444.4c0,0,5.3-17.5,19.3-13.1s9.3,9.2,9.3,9.2S2505.6,451.7,2498.3,444.4z"/>
		<path id="XMLID_111_" class="st3" d="M2508,419.2l-1.3,1.6c-2,2.4-0.3,6.1,2.9,6.1h2.1c1.5,0,2.6-1.3,2.3-2.8l0,0
			C2513.4,421.3,2510.9,419.2,2508,419.2L2508,419.2z"/>
		<path id="XMLID_110_" class="st4" d="M2264,406.8l-1,1.2c-1.6,1.9-0.2,4.7,2.2,4.7h1.6c1.1,0,2-1,1.8-2.2l0,0
			C2268.1,408.4,2266.2,406.8,2264,406.8L2264,406.8z"/>
		<path id="XMLID_109_" class="st3" d="M2185.3,350.8l-1.1,1.3c-1.6,2-0.2,4.9,2.3,4.9h1.7c1.2,0,2.1-1.1,1.9-2.3l0,0
			C2189.6,352.5,2187.6,350.8,2185.3,350.8L2185.3,350.8z"/>
		<path id="XMLID_108_" class="st3" d="M2237.2,441.6l1.4-0.7c2.2-1,2.2-4.2,0-5.2l-1.5-0.7c-1-0.5-2.3,0.1-2.5,1.2l0,0
			C2234.1,438.3,2235.2,440.6,2237.2,441.6L2237.2,441.6z"/>
		<path class="st3" d="M1788.6,444.2c-11.1-4-18,5.5-21.5,11.7h32.6C1799.7,452.3,1797.6,447.5,1788.6,444.2z"/>
		<path id="XMLID_107_" class="st3" d="M1762,432.6c0,0-3.3,8.1,2.7,10.7s9.6-5.4,9.6-5.4l-6.6-5.4h-5.7V432.6z"/>
		<path id="XMLID_106_" class="st3" d="M2217.1,418c0,0-2.6,6.3,2.1,8.3s7.5-4.1,7.5-4.1l-5.1-4.1L2217.1,418L2217.1,418z"/>
		<path id="XMLID_105_" class="st3" d="M2186.2,333.9l2.2-0.9c0,0,3.7,2.4,0,6.2c-1.9,1.9-2.9,2-3.7,1.1
			C2182.7,338.4,2183.6,335,2186.2,333.9z"/>
		<path class="st3" d="M2040.3,443.3c-1-5.3-0.3-7.4-5.7-10.7c-5.3-3.3-18,0.7-30,0.5c-8.5-0.1-16.9,14-22.1,22.8h47.8
			C2035.8,451,2040.8,445.8,2040.3,443.3z"/>
		<path id="XMLID_104_" class="st3" d="M2319.3,302.6c0,0-9.3,24.7,0,26.7c9.3,2,28.7,0,28.7,0l6.7-23.3L2319.3,302.6z"/>
		<path id="XMLID_103_" class="st3" d="M2359.3,315.9c0,0-6,8.3,0,10.5s17.3-2,15.3-5.2C2372.6,317.9,2367.9,312.1,2359.3,315.9z"/>
		<path id="XMLID_102_" class="st3" d="M2303.3,320.8c0,0,4.7,12.8-3.3,11.9c-8-0.8-6.7-11.9-6.7-11.9S2298.6,316.4,2303.3,320.8z"
			/>
		<path class="st3" d="M2497.3,434.8c0,0-14-7.6-25.3-9.6c-7.9-1.4-19.7,18-26.3,30.7h49.4C2496.4,447.6,2497.3,434.8,2497.3,434.8z
			"/>
		<path id="XMLID_101_" class="st3" d="M2422.6,425.2c0,0-9.3,12.6,0,13c9.3,0.4,23.3-11.5,23.3-11.5S2442,407.8,2422.6,425.2z"/>
		
			<linearGradient id="XMLID_130_" gradientUnits="userSpaceOnUse" x1="2175.4932" y1="233.8999" x2="2175.4932" y2="904.0896" gradientTransform="matrix(1 0 0 -1 0 503.8)">
			<stop  offset="0" style="stop-color:#5F3D3A"/>
			<stop  offset="0.1126" style="stop-color:#64423F"/>
			<stop  offset="0.2547" style="stop-color:#744F4B"/>
			<stop  offset="0.4126" style="stop-color:#8E6561"/>
			<stop  offset="0.582" style="stop-color:#B2847F"/>
			<stop  offset="0.7588" style="stop-color:#E0AAA5"/>
			<stop  offset="0.8022" style="stop-color:#ECB5AF"/>
		</linearGradient>
		<path id="XMLID_100_" class="st11" d="M2230.2,204.9c-21.4,14.7-45.6,5.1-63.1-6.5c-12.1-13.7-14-21.6-30.5-24.1l37.3-2.5
			c-4.7-3.2-2-10.6,3.6-10l51.9,4.9l0,0c-12.6-12.6-4.2-34.3,13.6-35l6.2-0.3l0,0c-15.2-15.2-15-39.8,0.4-54.7l28.4-27.5
			c0,0-95.5,31-98.1,32.3c-13.8,6.8-31.5,25.4-46.7,43.4l-12.3,2.6l55.4-48.2c-18,2.2-29.2-18.9-17.3-32.6l5.3-6.1l0,0
			c-22-1.5-39.1-19.7-39.3-41.8l-0.3-35.7c0,0-43.4,90.5-44.2,93.3c-5.8,18.8-2.2,55.5,1.8,82.5h-0.2c-1.7,0-6.2-6.6-6.2-6.6
			c-1.7,0-2.7-1.8-1.9-3.3l-7.3-6.6c-1.7,0-2.7-1.8-1.9-3.3l0,0l-7.3-6.6c-1.7,0-2.7-1.8-1.9-3.3c0,0-7-5.1-6.2-6.6l0,0h-5.3
			c1.4-1.4,3.3-2.6,5-3.6c2.9-1.7,4.8-4.8,4.8-8.1l0,0l-27.2,12.1l-26,20.4c-1,0.8-1.1,2.2-0.3,3.1l5.9,7.4l0.9,8.3
			c0,0,13.1-4.3,27-7.7c4.7-1.1,9.5,0.6,12.5,4.4c10.2,13.3,26,28.5,37,38.6l-1.8,13.2l-16.8,9.9v9.9l9.7-3.9l2.8-4.7l12.8-6
			c5.9,14.1,16.5,30.4,28.6,38.6l2.9,10.3l-9.5,9.9l9.5,7.3l5.2-6l8.6-11.2c0,0-3.9-2-5.9-5.5c5.6,1,11.2,0.4,16.5-0.9
			c1,2.6,2,4.7,2,4.7l-8.7,6.5l6.5,9l12.5-17.6c-1.2-0.7-2.3-2.9-3.2-5.3c8.6-3.1,16.3-6.6,22.1-5.4c44.8,8.8,68.8-16.3,92-25.3
			s81.7,1.3,81.7,1.3S2281.2,169.9,2230.2,204.9z M2028.8,112.8c0,0,7.1-7.1,11.7-5.1C2040.5,107.8,2036.4,114.2,2028.8,112.8z
			 M2062.1,125.6L2062.1,125.6L2062.1,125.6L2062.1,125.6z M2065.2,128.9C2065.2,128.9,2065.1,128.9,2065.2,128.9L2065.2,128.9
			L2065.2,128.9z"/>
		<path id="XMLID_99_" class="st6" d="M1950.8,274.3c0,0,137.4-98.7,199.2-107.5c61.8-8.9,175.1,106.1,224.5,116.1L1950.8,274.3z"/>
		<path class="st7" d="M1826.3,257.5c-18.5-3.7-48.3-30.2-80.1-59.7v66.6l20.2,1.1L1826.3,257.5z"/>
		<path class="st8" d="M2536.2,266.9c-139.2-12-272.7,10.4-410.8,5.4c-24.7,0-48.5,0-73.2-5c-17.5-4-33-11-51.5-7
			c-50.5,10-97.9,11-147.4,12c-35.6,1-73,7.6-106.9-1.7v42.8c32.6,7.6,68.1,1.4,102,0.5c49.5-1,96.9-2,147.4-12c18.6-4,34,3,51.5,7
			c24.7,5,48.5,5,73.2,5c138.1,5,274.2-13,413.4-1c3.4,0.4,7,0.5,10.6,0.3l0.3-45.6C2542.9,267.6,2538,267.1,2536.2,266.9z"/>
		<path id="XMLID_98_" class="st7" d="M1761.2,268.9c0,0,104-132.5,165.8-141.3c61.8-8.9,162.3,131.6,211.6,141.6l-26,0.7l-100-16
			L1761.2,268.9z"/>
		<linearGradient id="SVGID_2_" gradientUnits="userSpaceOnUse" x1="1742.8508" y1="219.7741" x2="1742.8508" y2="270.7936">
			<stop  offset="0" style="stop-color:#9CB62F"/>
			<stop  offset="1" style="stop-color:#C9E550"/>
		</linearGradient>
		<path class="st12" d="M2530.6,259.3c-31.7-2.8-63.4-4.5-95-5.2l1.7-8.2l-3.7,8.2c-13.7-0.3-27.5-0.5-41.2-0.4l2.6-10.3l-4.8,10.3
			c-0.6,0-1.1,0-1.7,0l-2.1-17.4l-3.2,15.8l-8.8-12.8l2.5,14.4c-44.4,0.4-88.7,2.1-133,4.6l-3.6-6.4l1.3,6.5
			c-26.7,1.5-53.4,3.2-80.1,4.9c-23.7,1-45.4-1-69.1-6c-17.9-3.5-35.2-6.4-52.8-7.6l3.1-12.2l-5.5,12.1c-0.2,0-0.4,0-0.7,0l-2.3-19
			l-3.2,15.8l-8.8-12.8l2.8,15.7c-3,0-5.9,0-8.9,0.1c-12.2,0.6-24.4,1.2-36.5,1.6l-5.3-7.6l2.3,7.7c-17.5,0.7-34.9,1.4-52.3,2.4
			l2.6-10.2l-4.7,10.3c-0.6,0-1.1,0.1-1.7,0.1l-2.1-17.4l-3.2,15.8l-8.8-12.8l2.7,15.2c-20.4,1.5-40.7,3.5-61,6.8
			c-12.4,2.3-25.6,2.2-39,1.4l3.1-12.3l-5.6,12.1c-0.2,0-0.4,0-0.6,0l-2.3-19.1l-3.2,15.8l-8.8-12.8l2.6,15.1
			c-16.2-1.6-32.5-3.8-48.1-4l-0.1,0.3c-4.1,0.5-8.5,1.8-12.6,1.5c-31.7-2.8-63.4-4.5-95-5.2l1.7-8.2l-3.7,8.2
			c-13.7-0.3-27.5-0.5-41.2-0.4l2.6-10.3l-4.8,10.3c-0.6,0-1.1,0-1.7,0l-2.1-17.4l-3.2,15.8l-8.8-12.8l2.5,14.4
			c-44.4,0.4-88.7,2.1-133,4.6l-3.6-6.4l1.3,6.5c-26.7,1.5-53.4,3.2-80.1,4.9c-23.7,1-45.4-1-69.1-6c-17.9-3.5-35.2-6.4-52.8-7.6
			l3.1-12.2l-5.5,12.1c-0.2,0-0.4,0-0.7,0l-2.3-19l-3.2,15.8l-8.8-12.8l2.8,15.7c-3,0-5.9,0-8.9,0.1c-12.2,0.6-24.4,1.2-36.5,1.6
			l-5.3-7.6l2.3,7.7c-17.5,0.7-34.9,1.4-52.3,2.4l2.6-10.2l-4.7,10.3c-0.6,0-1.1,0.1-1.7,0.1l-2.1-17.4l-3.2,15.8l-8.8-12.8
			l2.7,15.2c-20.4,1.5-40.7,3.5-61,6.8c-12.4,2.3-25.6,2.2-39,1.4l3.1-12.3l-5.6,12.1c-0.2,0-0.4,0-0.6,0l-2.3-19.1l-3.2,15.8
			l-8.8-12.8l2.6,15.1c-16.2-1.6-32.5-3.8-56.2-1.8V271c42,7,79.5,2.4,115,1.4c49.5-1,96.9-2,147.4-12c18.6-4,34,3,51.5,7
			c24.7,5,48.5,5,73.2,5c138.1,5,274.1-13,413.3-1c33.8,8.9,76.6,2,111.7,1c49.5-1,96.9-2,147.4-12c18.6-4,34,3,51.5,7
			c24.7,5,48.5,5,73.2,5c138.1,5,274.2-13,413.4-1c1.9,0.2,4.3-1.3,6.3-1.2v-12.5C2540.2,257.9,2535.2,259.7,2530.6,259.3z"/>
	</g>
</g>
<g>
	<g id="XMLID_64_">
		<path class="st7" d="M2544.7,198.3v-0.5c-53-49.2-111.5-106.9-131.5-81.9c-35.8,40.3-173.1,151.8-173.1,151.8l213.4-8.5l91.2,5.2
			h0.5l20.2,1.1l59.9-8.1C2607.3,253.9,2575.6,226.9,2544.7,198.3z"/>
		<polygon class="st0" points="2545.1,292.6 2546,454.9 3343.5,454.9 3343.5,292.9 		"/>
		<path class="st1" d="M2612.3,380.9c-49.4,12.6-64-2-66.4-5.1c-11.5-18.9-79-112-221.1,7.4c-42.8,36-76.7,59.6-103.4,75h19.1
			c22-19.8,87.8-76.5,148.3-105.5c60.4-29,126.7,28,149.1,50c5.9,5.8,13.1,10,21,12.3c84.5,24.6,101.5-17.9,125.3-54.1
			c25-38,82.2-50.3,82.2-50.3C2698.4,311.4,2667.3,366.9,2612.3,380.9z"/>
		<path class="st1" d="M2774.3,437.9c23.5-23.5,66-6,78-97c6-45.6,93-41,93-41l-28-7c0,0-79.4,15.5-84,57c-3.3,29.7-1.7,51.8-61,62
			c-33.2,5.7-64,26-85.8,44h73.8C2763.9,449.9,2768.5,443.7,2774.3,437.9z"/>
		<path id="XMLID_95_" class="st2" d="M2662.3,287.5c0,0,5,4.5,2,28.4c-2.5,20.2-16,38-49,47.9c0,0,39,4.1,83-58.9L2662.3,287.5z"/>
		<path class="st2" d="M3034.3,389.9c168-23,159-97,159-97s-2,76-183,80c-88.7,2-141.8,42.3-173,83h102.6
			C2953.9,423.2,2982.1,397,3034.3,389.9z"/>
		<path id="XMLID_94_" class="st1" d="M2971.3,292.9c0,0-44,32-48,63s-60,31-72,52c0,0,22-11,49-18c25.5-6.6,29-6.3,36.7-35.8
			c3-11.7-8-38.2,71.3-28.4c51.6,6.3,94-27.8,94-27.8l-34-5c0,0-21.9,32.2-48.5,27C2993.3,314.7,2971.3,292.9,2971.3,292.9z"/>
		<path class="st1" d="M3122.8,380.9c-42.8,36-76.7,59.6-103.4,75h19.1c22-19.8,87.8-76.5,148.3-105.5
			c74-35.5,155.5,58.2,155.5,58.2l1.2-13v-21.8C3332.1,355.1,3265,261.3,3122.8,380.9z"/>
		<path id="XMLID_93_" class="st2" d="M3333.3,433.9c0,0-69-72-130-38s-94.3,48-111,38c0,0,40,5,100-56
			c40.2-40.8,89.7-13.8,118.1,8.6C3324.9,397.9,3333.3,415.4,3333.3,433.9L3333.3,433.9z"/>
		<path class="st2" d="M2750.3,379.9c53.3-15.1,71-64,71-64s-20,40-72,49.8c-29.8,5.6-80.3,51.8-117.9,90.2h8.2
			C2676.2,424,2721.9,387.9,2750.3,379.9z"/>
		<path id="XMLID_92_" class="st3" d="M2558.3,336.9c0,0,26-15,37,0s-15,14-27,13.5S2558.3,336.9,2558.3,336.9z"/>
		<path id="XMLID_91_" class="st3" d="M3039.9,422.4c0,0,20.1-11.6,28.6,0s-11.6,10.8-20.9,10.4
			C3038.4,432.5,3039.9,422.4,3039.9,422.4z"/>
		<path id="XMLID_90_" class="st3" d="M2615.3,325.7c0,0-10,14.3,0,14.8C2625.3,340.9,2627.3,321.4,2615.3,325.7z"/>
		<path id="XMLID_89_" class="st3" d="M2581.7,362.6L2581.7,362.6c1.6-1.4,3.7-1.7,5.6-1l1.9,0.7c1.7,0.7,2.1,3,0.5,4.1l-2,1.5
			c-1.3,0.9-3,1.1-4.5,0.5c-0.2-0.1-0.4-0.2-0.7-0.3C2580.3,367.1,2579.9,364.1,2581.7,362.6z"/>
		<path id="XMLID_88_" class="st3" d="M2603.3,350.6c0,0,5.8,7.7,13.9,0S2597.5,342.9,2603.3,350.6z"/>
		<path id="XMLID_87_" class="st3" d="M2715.6,357.9c0,0,5.3-17.5,19.3-13.1s9.3,9.2,9.3,9.2S2723,365.2,2715.6,357.9z"/>
		<path id="XMLID_86_" class="st3" d="M2994.6,343.1c0,0-8.1,11.6,0,11.9C3002.7,355.4,3004.3,339.7,2994.6,343.1z"/>
		<path id="XMLID_85_" class="st3" d="M2948.2,346.2c0,0,4.7,6.3,11.3,0C2966,340,2943.5,340,2948.2,346.2z"/>
		<path id="XMLID_84_" class="st3" d="M2963.6,351.9c0,0,4.3-14.1,15.6-10.6c11.3,3.6,7.5,7.5,7.5,7.5S2969.5,357.8,2963.6,351.9z"
			/>
		<path id="XMLID_83_" class="st3" d="M2740.7,331.9L2740.7,331.9c-2.2,3.1-1.3,7.4,1.9,9.3c4.9,3,12.1,6.2,17.7,3.6
			c3.1-1.4,4.1-4.7,3.5-8.3C2761.8,325.5,2747.1,322.7,2740.7,331.9z"/>
		<path id="XMLID_82_" class="st3" d="M3004.6,433.4L3004.6,433.4c-1.7,2.4-1,5.7,1.5,7.2c3.8,2.3,9.4,4.8,13.7,2.8
			c2.4-1.1,3.2-3.7,2.7-6.4C3021,428.5,3009.6,426.3,3004.6,433.4z"/>
		<path id="XMLID_80_" class="st3" d="M2725.4,332.7l-1.3,1.6c-2,2.4-0.3,6.1,2.9,6.1h2.1c1.5,0,2.6-1.3,2.3-2.8l0,0
			C2730.7,334.8,2728.3,332.7,2725.4,332.7L2725.4,332.7z"/>
		<path id="XMLID_79_" class="st3" d="M3297.3,444.4c0,0,5.3-17.5,19.3-13.1s9.3,9.2,9.3,9.2S3304.6,451.7,3297.3,444.4z"/>
		<path id="XMLID_78_" class="st3" d="M3307,419.2l-1.3,1.6c-2,2.4-0.3,6.1,2.9,6.1h2.1c1.5,0,2.6-1.3,2.3-2.8l0,0
			C3312.4,421.3,3309.9,419.2,3307,419.2L3307,419.2z"/>
		<path id="XMLID_77_" class="st4" d="M3063,406.8l-1,1.2c-1.6,1.9-0.2,4.7,2.2,4.7h1.6c1.1,0,2-1,1.8-2.2l0,0
			C3067.1,408.4,3065.2,406.8,3063,406.8L3063,406.8z"/>
		<path id="XMLID_76_" class="st3" d="M2984.3,350.8l-1.1,1.3c-1.6,2-0.2,4.9,2.3,4.9h1.7c1.2,0,2.1-1.1,1.9-2.3l0,0
			C2988.6,352.5,2986.6,350.8,2984.3,350.8L2984.3,350.8z"/>
		<path id="XMLID_75_" class="st3" d="M3036.2,441.6l1.4-0.7c2.2-1,2.2-4.2,0-5.2l-1.5-0.7c-1-0.5-2.3,0.1-2.5,1.2l0,0
			C3033.1,438.3,3034.2,440.6,3036.2,441.6L3036.2,441.6z"/>
		<path class="st3" d="M2587.6,444.2c-11.1-4-18,5.5-21.5,11.7h32.6C2598.7,452.3,2596.6,447.5,2587.6,444.2z"/>
		<path id="XMLID_74_" class="st3" d="M2561,432.6c0,0-3.3,8.1,2.7,10.7s9.6-5.4,9.6-5.4l-6.6-5.4h-5.7V432.6z"/>
		<path id="XMLID_73_" class="st3" d="M3016.1,418c0,0-2.6,6.3,2.1,8.3s7.5-4.1,7.5-4.1l-5.1-4.1L3016.1,418L3016.1,418z"/>
		<path id="XMLID_72_" class="st3" d="M2985.2,333.9l2.2-0.9c0,0,3.7,2.4,0,6.2c-1.9,1.9-2.9,2-3.7,1.1
			C2981.7,338.4,2982.6,335,2985.2,333.9z"/>
		<path class="st3" d="M2839.3,443.3c-1-5.3-0.3-7.4-5.7-10.7c-5.3-3.3-18,0.7-30,0.5c-8.5-0.1-16.9,14-22.1,22.8h47.8
			C2834.8,451,2839.8,445.8,2839.3,443.3z"/>
		<path id="XMLID_71_" class="st3" d="M3118.3,302.6c0,0-9.3,24.7,0,26.7c9.3,2,28.7,0,28.7,0l6.7-23.3L3118.3,302.6z"/>
		<path id="XMLID_70_" class="st3" d="M3158.3,315.9c0,0-6,8.3,0,10.5s17.3-2,15.3-5.2C3171.6,317.9,3166.9,312.1,3158.3,315.9z"/>
		<path id="XMLID_69_" class="st3" d="M3102.3,320.8c0,0,4.7,12.8-3.3,11.9c-8-0.8-6.7-11.9-6.7-11.9S3097.6,316.4,3102.3,320.8z"/>
		<path class="st3" d="M3296.3,434.8c0,0-14-7.6-25.3-9.6c-7.9-1.4-19.7,18-26.3,30.7h49.4C3295.4,447.6,3296.3,434.8,3296.3,434.8z
			"/>
		<path id="XMLID_68_" class="st3" d="M3221.6,425.2c0,0-9.3,12.6,0,13c9.3,0.4,23.3-11.5,23.3-11.5S3241,407.8,3221.6,425.2z"/>
		
			<linearGradient id="XMLID_131_" gradientUnits="userSpaceOnUse" x1="2974.4932" y1="233.8999" x2="2974.4932" y2="904.0896" gradientTransform="matrix(1 0 0 -1 0 503.8)">
			<stop  offset="0" style="stop-color:#5F3D3A"/>
			<stop  offset="0.1126" style="stop-color:#64423F"/>
			<stop  offset="0.2547" style="stop-color:#744F4B"/>
			<stop  offset="0.4126" style="stop-color:#8E6561"/>
			<stop  offset="0.582" style="stop-color:#B2847F"/>
			<stop  offset="0.7588" style="stop-color:#E0AAA5"/>
			<stop  offset="0.8022" style="stop-color:#ECB5AF"/>
		</linearGradient>
		<path id="XMLID_67_" class="st13" d="M3029.2,204.9c-21.4,14.7-45.6,5.1-63.1-6.5c-12.1-13.7-14-21.6-30.5-24.1l37.3-2.5
			c-4.7-3.2-2-10.6,3.6-10l51.9,4.9l0,0c-12.6-12.6-4.2-34.3,13.6-35l6.2-0.3l0,0c-15.2-15.2-15-39.8,0.4-54.7l28.4-27.5
			c0,0-95.5,31-98.1,32.3c-13.8,6.8-31.5,25.4-46.7,43.4l-12.3,2.6l55.4-48.2c-18,2.2-29.2-18.9-17.3-32.6l5.3-6.1l0,0
			c-22-1.5-39.1-19.7-39.3-41.8l-0.3-35.7c0,0-43.4,90.5-44.2,93.3c-5.8,18.8-2.2,55.5,1.8,82.5h-0.2c-1.7,0-6.2-6.6-6.2-6.6
			c-1.7,0-2.7-1.8-1.9-3.3l-7.3-6.6c-1.7,0-2.7-1.8-1.9-3.3l0,0l-7.3-6.6c-1.7,0-2.7-1.8-1.9-3.3c0,0-7-5.1-6.2-6.6l0,0h-5.3
			c1.4-1.4,3.3-2.6,5-3.6c2.9-1.7,4.8-4.8,4.8-8.1l0,0l-27.2,12.1l-26,20.4c-1,0.8-1.1,2.2-0.3,3.1l5.9,7.4l0.9,8.3
			c0,0,13.1-4.3,27-7.7c4.7-1.1,9.5,0.6,12.5,4.4c10.2,13.3,26,28.5,37,38.6l-1.8,13.2l-16.8,9.9v9.9l9.7-3.9l2.8-4.7l12.8-6
			c5.9,14.1,16.5,30.4,28.6,38.6l2.9,10.3l-9.5,9.9l9.5,7.3l5.2-6l8.6-11.2c0,0-3.9-2-5.9-5.5c5.6,1,11.2,0.4,16.5-0.9
			c1,2.6,2,4.7,2,4.7l-8.7,6.5l6.5,9l12.5-17.6c-1.2-0.7-2.3-2.9-3.2-5.3c8.6-3.1,16.3-6.6,22.1-5.4c44.8,8.8,68.8-16.3,92-25.3
			s81.7,1.3,81.7,1.3S3080.2,169.9,3029.2,204.9z M2827.8,112.8c0,0,7.1-7.1,11.7-5.1C2839.5,107.8,2835.4,114.2,2827.8,112.8z
			 M2861.1,125.6L2861.1,125.6L2861.1,125.6L2861.1,125.6z M2864.2,128.9C2864.2,128.9,2864.1,128.9,2864.2,128.9L2864.2,128.9
			L2864.2,128.9z"/>
		<path id="XMLID_66_" class="st6" d="M2749.8,274.3c0,0,137.4-98.7,199.2-107.5c61.8-8.9,175.1,106.1,224.5,116.1L2749.8,274.3z"/>
		<path class="st7" d="M3212.2,115.9c-35.8,40.3-173.1,151.8-173.1,151.8l213.4-8.5l91.2,5.2v-66.6
			C3290.6,148.6,3232.2,90.9,3212.2,115.9z"/>
		<path class="st8" d="M3335.2,266.9c-139.2-12-272.7,10.4-410.8,5.4c-24.7,0-48.5,0-73.2-5c-17.5-4-33-11-51.5-7
			c-50.5,10-97.9,11-147.4,12c-35.6,1-77,3.3-111.8-3.1l-17.5,43.2c32.6,7.6,90.5,2.4,124.4,1.5c49.5-1,96.9-2,147.4-12
			c18.6-4,34,3,51.5,7c24.7,5,48.5,5,73.2,5c138.1,5,274.2-13,413.4-1c3.4,0.4,7,0.5,10.6,0.3l0.3-45.6
			C3341.9,267.6,3337,267.1,3335.2,266.9z"/>
		<path class="st3" d="M3332.9,312.9c-139.2-12-275.3,6-413.4,1c-24.7,0-48.5,0-73.2-5c-17.5-4-33-11-51.5-7
			c-50.5,10-97.9,11-147.4,12c-33.6,0.9-84.5,4.4-113.3-1c-0.2,0-0.3,0-0.5-0.1c-139.1-12-275.1,6-413.2,1c-24.7,0-48.5,0-73.2-5
			c-17.5-4-33-11-51.5-7c-50.5,10-97.9,11-147.4,12c-33.6,0.9-67.5,3-101-0.4v-0.2c-3.7,0.2-7.2,0.1-10.6-0.3
			c-139.2-12-275.3,6-413.4,1c-24.7,0-48.5,0-73.2-5c-17.5-4-33-11-51.5-7c-50.5,10-97.9,11-147.4,12c-32.1,0.9-61.7,5.9-96.9,0.4
			c-3-0.5-5.7,1.9-5.6,4.9v0c0.1,2.3,1.7,4.2,3.9,4.7c31.6,6.3,66.1,0.8,98.6-0.1c49.5-1,96.9-2,147.4-12c18.6-4,34,3,51.5,7
			c24.7,5,48.5,5,73.2,5c138.1,5,274.2-13,413.4-1c3.2,0.4,6.6,0.5,10,0.4c0.4,0,0.8,0,1.2,0.1c32.4,7.4,66.7,1.4,100.4,0.5
			c49.5-1,96.9-2,147.4-12c18.6-4,34,3,51.5,7c24.7,5,48.5,5,73.2,5c138.1,5,274.2-13,413.4-1c2.8,0.4,8.6,0.3,10.5,0.2
			c0.4,0,0.8,0,1.2,0.1c32.4,7.4,68.2,1.5,101.9,0.6c49.5-1,96.9-2,147.4-12c18.6-4,34,3,51.5,7c24.7,5,48.5,5,73.2,5
			c138.1,5,274.2-13,413.4-1c1.8,0.2,3.8,0.4,5.7,0.4c2.7,0.1,4.9-2.2,4.9-4.9v-0.2c0-2.7-2.1-4.8-4.8-4.9
			C3336.7,313.3,3334.8,313.1,3332.9,312.9z"/>
		<path id="XMLID_65_" class="st7" d="M2560.2,268.9c0,0,104-132.5,165.8-141.3c61.8-8.9,162.3,131.6,211.6,141.6l-26,0.7l-100-16
			L2560.2,268.9z"/>
		<linearGradient id="SVGID_3_" gradientUnits="userSpaceOnUse" x1="2940.4307" y1="220.0358" x2="2940.4307" y2="269.8221">
			<stop  offset="0" style="stop-color:#9CB62F"/>
			<stop  offset="1" style="stop-color:#C9E550"/>
		</linearGradient>
		<path class="st14" d="M3329.6,259.3c-31.7-2.8-63.4-4.5-95-5.2l1.7-8.2l-3.7,8.2c-13.7-0.3-27.5-0.5-41.2-0.4l2.6-10.3l-4.8,10.3
			c-0.6,0-1.1,0-1.7,0l-2.1-17.4l-3.2,15.8l-8.8-12.8l2.5,14.4c-44.4,0.4-88.7,2.1-133,4.6l-3.6-6.4l1.3,6.5
			c-26.7,1.5-53.4,3.2-80.1,4.9c-23.7,1-45.4-1-69.1-6c-17.9-3.5-35.2-6.4-52.8-7.6l3.1-12.2l-5.5,12.1c-0.2,0-0.4,0-0.7,0l-2.3-19
			l-3.2,15.8l-8.8-12.8l2.8,15.7c-3,0-5.9,0-8.9,0.1c-12.2,0.6-24.4,1.2-36.5,1.6l-5.3-7.6l2.3,7.7c-17.5,0.7-34.9,1.4-52.3,2.4
			l2.6-10.2l-4.7,10.3c-0.6,0-1.1,0.1-1.7,0.1l-2.1-17.4l-3.2,15.8l-8.8-12.8l2.7,15.2c-20.4,1.5-40.7,3.5-61,6.8
			c-12.4,2.3-25.6,2.2-39,1.4l3.1-12.3l-5.6,12.1c-0.2,0-0.4,0-0.6,0l-2.3-19.1l-3.2,15.8l-8.8-12.8l2.6,15.1
			c-16.2-1.6-32.4,0.4-56.1,2.4l-0.1,7.1c42,7,79.5,2.4,115,1.4c49.5-1,96.9-2,147.4-12c18.6-4,34,3,51.5,7c24.7,5,48.5,5,73.2,5
			c138.1,5,274.2-13,413.4-1c1.9,0.2,4.3-1.3,6.3-1.2v-12.5C3339.2,257.9,3334.2,259.7,3329.6,259.3z"/>
	</g>
</g>
</svg>
